<svg fill="#ff0000" height="196px" width="196px" version="1.1" id="Layer_1" xmlns="http://www.w3.org/2000/svg" xmlns:xlink="http://www.w3.org/1999/xlink" viewBox="-153.6 -153.6 819.20 819.20" xml:space="preserve" stroke="#ff0000"><g id="SVGRepo_bgCarrier" stroke-width="0"><rect x="-153.6" y="-153.6" width="819.20" height="819.20" rx="409.6" fill="#ffffff" strokewidth="0"/></g><g id="SVGRepo_tracerCarrier" stroke-linecap="round" stroke-linejoin="round"/><g id="SVGRepo_iconCarrier"> <g> <g> <path d="M484.63,360.454c-2.772,0.355-5.591,0.559-8.458,0.559H35.824v0.001c-2.867,0-5.686-0.204-8.458-0.559 c10.188,37.581,37.471,68.196,72.953,82.949L81.343,476.27l26.341,15.209L130.65,451.7c5.748,0.811,11.617,1.241,17.585,1.241 H363.76c5.968,0,11.837-0.429,17.585-1.241l22.967,39.779l26.341-15.209l-18.976-32.868 C447.159,428.65,474.442,398.034,484.63,360.454z"/> </g> </g> <g> <g> <path d="M476.176,258.947H78.567V228.53V79.722c0-15.872,12.912-28.784,28.784-28.784s28.784,12.912,28.784,28.784V90.04h-22.419 v30.417h75.254V90.04h-22.419V79.722c0-32.644-26.557-59.201-59.201-59.201c-32.644,0-59.201,26.557-59.201,59.201V228.53v30.417 H35.824C16.071,258.947,0,275.018,0,294.772s16.071,35.824,35.824,35.824h440.351c19.753,0,35.824-16.07,35.824-35.824 S495.929,258.947,476.176,258.947z"/> </g> </g> </g></svg>