<svg fill="#ff0000" width="181px" height="181px" viewBox="-56.32 -56.32 368.64 368.64" id="Flat" xmlns="http://www.w3.org/2000/svg" stroke="#ff0000"><g id="SVGRepo_bgCarrier" stroke-width="0"><rect x="-56.32" y="-56.32" width="368.64" height="368.64" rx="184.32" fill="#ffffff" strokewidth="0"/></g><g id="SVGRepo_tracerCarrier" stroke-linecap="round" stroke-linejoin="round"/><g id="SVGRepo_iconCarrier"> <g> <path d="M108,36H48A12,12,0,0,0,36,48v60a12,12,0,0,0,12,12h60a12,12,0,0,0,12-12V48A12,12,0,0,0,108,36ZM96,96H60V60H96Z"/> <path d="M208,36H148a12,12,0,0,0-12,12v60a12,12,0,0,0,12,12h60a12,12,0,0,0,12-12V48A12,12,0,0,0,208,36ZM196,96H160V60h36Z"/> <path d="M108,136H48a12,12,0,0,0-12,12v60a12,12,0,0,0,12,12h60a12,12,0,0,0,12-12V148A12,12,0,0,0,108,136ZM96,196H60V160H96Z"/> <path d="M208,136H148a12,12,0,0,0-12,12v60a12,12,0,0,0,12,12h60a12,12,0,0,0,12-12V148A12,12,0,0,0,208,136Zm-12,60H160V160h36Z"/> </g> </g></svg>